<svg width="18" height="18" viewBox="0 0 18 18" fill="none" xmlns="http://www.w3.org/2000/svg">
<path d="M9 17.9633C6.48333 17.9633 4.35417 17.0925 2.6125 15.3508C0.870833 13.6092 0 11.48 0 8.96333C0 6.66333 0.75 4.6675 2.25 2.97583C3.75 1.28417 5.66667 0.296667 8 0.0133333C8.21667 -0.02 8.40833 0.00916667 8.575 0.100833C8.74167 0.1925 8.875 0.313333 8.975 0.463333C9.075 0.613333 9.12917 0.788333 9.1375 0.988333C9.14583 1.18833 9.08333 1.38 8.95 1.56333C8.66667 1.99667 8.45417 2.455 8.3125 2.93833C8.17083 3.42167 8.1 3.93 8.1 4.46333C8.1 5.96333 8.625 7.23833 9.675 8.28833C10.725 9.33833 12 9.86333 13.5 9.86333C14.0167 9.86333 14.5292 9.78833 15.0375 9.63833C15.5458 9.48833 16 9.28 16.4 9.01333C16.5833 8.89667 16.7708 8.8425 16.9625 8.85083C17.1542 8.85917 17.325 8.905 17.475 8.98833C17.6417 9.07167 17.7708 9.19667 17.8625 9.36333C17.9542 9.53 17.9833 9.73 17.95 9.96333C17.7167 12.2633 16.7375 14.1717 15.0125 15.6883C13.2875 17.205 11.2833 17.9633 9 17.9633Z" fill="#F5F5F5"/>
</svg>
