<svg version="1.0" xmlns="http://www.w3.org/2000/svg" width="50.000000pt" height="49.000000pt"
    viewBox="0 0 50.000000 49.000000" preserveAspectRatio="xMidYMid meet">
    <g transform="translate(0.000000,49.000000) scale(0.100000,-0.100000)" fill="#000000"
        stroke="none">
        <path d="M142 459 c-53 -26 -105 -86 -120 -138 -12 -37 -17 -121 -7 -121 14 0 286 135 277 138 -21 7 -93 -19 -104 -38 -12 -18 -15 -17 -81 17 l-68 36 24 16 c33 22 57 47 57 60 0 20 24 12 113 -39 l89 -49 54 27 c30 14 53 31 51 37 -2 5 -25 23 -52 40 -65 41 -169 47 -233 14z m163 -20 c47 -16 61 -49 22 -49 -32 0 -107 40 -107 56 0 14 29 12 85 -7z" />
        <path d="M390 235 c-47 -24 -138 -67 -202 -97 -65 -29 -118 -56 -118 -59 0 -4 19 -19 43 -35 35 -24 55 -29 119 -32 64 -3 85 0 122 18 49 23 92 67 112 116 17 39 29 134 18 133 -5 0 -47 -20 -94 -44z m30 -90 c-22 -45 -61 -76 -140 -109 -33 -13 -39 -13 -83 6 -26 11 -47 24 -47 29 0 17 283 143 288 128 2 -5 -6 -29 -18 -54z" />
    </g>
</svg> 