<svg width="22" height="22" viewBox="0 0 22 22" fill="none" xmlns="http://www.w3.org/2000/svg">
<path d="M10 2V1C10 0.716667 10.0958 0.479167 10.2875 0.2875C10.4792 0.0958333 10.7167 0 11 0C11.2833 0 11.5208 0.0958333 11.7125 0.2875C11.9042 0.479167 12 0.716667 12 1V2C12 2.28333 11.9042 2.52083 11.7125 2.7125C11.5208 2.90417 11.2833 3 11 3C10.7167 3 10.4792 2.90417 10.2875 2.7125C10.0958 2.52083 10 2.28333 10 2ZM10 21V20C10 19.7167 10.0958 19.4792 10.2875 19.2875C10.4792 19.0958 10.7167 19 11 19C11.2833 19 11.5208 19.0958 11.7125 19.2875C11.9042 19.4792 12 19.7167 12 20V21C12 21.2833 11.9042 21.5208 11.7125 21.7125C11.5208 21.9042 11.2833 22 11 22C10.7167 22 10.4792 21.9042 10.2875 21.7125C10.0958 21.5208 10 21.2833 10 21ZM21 12H20C19.7167 12 19.4792 11.9042 19.2875 11.7125C19.0958 11.5208 19 11.2833 19 11C19 10.7167 19.0958 10.4792 19.2875 10.2875C19.4792 10.0958 19.7167 10 20 10H21C21.2833 10 21.5208 10.0958 21.7125 10.2875C21.9042 10.4792 22 10.7167 22 11C22 11.2833 21.9042 11.5208 21.7125 11.7125C21.5208 11.9042 21.2833 12 21 12ZM2 12H1C0.716667 12 0.479167 11.9042 0.2875 11.7125C0.0958333 11.5208 0 11.2833 0 11C0 10.7167 0.0958333 10.4792 0.2875 10.2875C0.479167 10.0958 0.716667 10 1 10H2C2.28333 10 2.52083 10.0958 2.7125 10.2875C2.90417 10.4792 3 10.7167 3 11C3 11.2833 2.90417 11.5208 2.7125 11.7125C2.52083 11.9042 2.28333 12 2 12ZM18.75 4.675L18.4 5.025C18.2167 5.20833 17.9875 5.3 17.7125 5.3C17.4375 5.3 17.2 5.2 17 5C16.8167 4.81667 16.7208 4.5875 16.7125 4.3125C16.7042 4.0375 16.7917 3.8 16.975 3.6L17.35 3.225C17.5333 3.025 17.7667 2.925 18.05 2.925C18.3333 2.925 18.575 3.025 18.775 3.225C18.975 3.425 19.0708 3.66667 19.0625 3.95C19.0542 4.23333 18.95 4.475 18.75 4.675ZM5.025 18.4L4.65 18.775C4.46667 18.975 4.23333 19.075 3.95 19.075C3.66667 19.075 3.425 18.975 3.225 18.775C3.025 18.575 2.92917 18.3333 2.9375 18.05C2.94583 17.7667 3.05 17.525 3.25 17.325L3.6 16.975C3.78333 16.7917 4.0125 16.7 4.2875 16.7C4.5625 16.7 4.8 16.8 5 17C5.18333 17.1833 5.27917 17.4125 5.2875 17.6875C5.29583 17.9625 5.20833 18.2 5.025 18.4ZM17.325 18.75L16.975 18.4C16.7917 18.2167 16.7 17.9875 16.7 17.7125C16.7 17.4375 16.8 17.2 17 17C17.1833 16.8167 17.4125 16.7208 17.6875 16.7125C17.9625 16.7042 18.2 16.7917 18.4 16.975L18.775 17.35C18.975 17.5333 19.075 17.7667 19.075 18.05C19.075 18.3333 18.975 18.575 18.775 18.775C18.575 18.975 18.3333 19.0708 18.05 19.0625C17.7667 19.0542 17.525 18.95 17.325 18.75ZM3.6 5.025L3.225 4.65C3.025 4.46667 2.925 4.23333 2.925 3.95C2.925 3.66667 3.025 3.425 3.225 3.225C3.425 3.025 3.66667 2.92917 3.95 2.9375C4.23333 2.94583 4.475 3.05 4.675 3.25L5.025 3.6C5.20833 3.78333 5.3 4.0125 5.3 4.2875C5.3 4.5625 5.2 4.8 5 5C4.81667 5.18333 4.5875 5.27917 4.3125 5.2875C4.0375 5.29583 3.8 5.20833 3.6 5.025ZM11 17C9.33333 17 7.91667 16.4167 6.75 15.25C5.58333 14.0833 5 12.6667 5 11C5 9.33333 5.58333 7.91667 6.75 6.75C7.91667 5.58333 9.33333 5 11 5C12.6667 5 14.0833 5.58333 15.25 6.75C16.4167 7.91667 17 9.33333 17 11C17 12.6667 16.4167 14.0833 15.25 15.25C14.0833 16.4167 12.6667 17 11 17Z" fill="#1C1B1F"/>
</svg>
