<svg version="1.0" xmlns="http://www.w3.org/2000/svg" width="327.000000pt" height="49.000000pt"
    viewBox="0 0 327.000000 49.000000" preserveAspectRatio="xMidYMid meet">
    <g transform="translate(0.000000,49.000000) scale(0.100000,-0.100000)" fill="#000000"
        stroke="none">
        <path d="M142 459 c-53 -26 -105 -86 -120 -138 -12 -37 -17 -121 -7 -121 14 0 286 135 277 138 -21 7 -93 -19 -104 -38 -12 -18 -15 -17 -81 17 l-68 36 24 16 c33 22 57 47 57 60 0 20 24 12 113 -39 l89 -49 54 27 c30 14 53 31 51 37 -2 5 -25 23 -52 40 -65 41 -169 47 -233 14z m163 -20 c47 -16 61 -49 22 -49 -32 0 -107 40 -107 56 0 14 29 12 85 -7z" />
        <path d="M674 361 c-2 -2 -4 -51 -4 -108 l0 -103 65 0 c57 0 69 3 90 25 30 29 31 36 6 66 -17 21 -17 25 -4 46 14 21 14 26 -1 47 -13 21 -25 25 -82 28 -36 1 -68 1 -70 -1z m113 -42 c21 -21 3 -39 -38 -39 -35 0 -39 3 -39 25 0 22 4 25 33 25 18 0 38 -5 44 -11z m15 -92 c14 -22 -5 -37 -48 -37 -39 0 -44 2 -44 23 0 13 2 26 5 28 8 9 80 -3 87 -14z" />
        <path d="M880 295 c0 -79 16 -127 45 -139 9 -3 33 -6 54 -6 69 0 96 48 89 160 -3 47 -6 55 -23 55 -18 0 -20 -7 -22 -79 -1 -43 -6 -83 -11 -88 -17 -17 -64 -12 -79 8 -8 11 -13 46 -13 91 0 66 -2 73 -20 73 -18 0 -20 -7 -20 -75z" />
        <path d="M1117 364 c-4 -4 -7 -54 -7 -111 0 -101 0 -103 23 -103 24 0 24 2 19 78 -5 86 -6 87 62 -10 31 -45 54 -68 67 -68 18 0 19 8 19 110 0 103 -1 110 -20 110 -18 0 -20 -7 -20 -77 l0 -76 -53 74 c-50 70 -74 89 -90 73z" />
        <path d="M1514 360 c-67 -27 -87 -129 -35 -181 24 -23 38 -29 74 -29 57 0 99 29 78 54 -13 15 -15 15 -32 0 -65 -58 -149 45 -86 104 27 25 55 28 83 8 13 -10 23 -11 31 -4 21 17 15 28 -22 44 -38 16 -60 17 -91 4z" />
        <path d="M1732 355 c-68 -30 -79 -130 -21 -179 86 -73 212 8 180 115 -19 64 -93 94 -159 64z m99 -43 c33 -27 30 -78 -5 -109 -31 -26 -57 -24 -90 7 -42 41 -10 120 49 120 13 0 33 -8 46 -18z" />
        <path d="M1945 356 c-2 -6 -6 -55 -9 -108 -6 -92 -5 -98 13 -98 21 0 31 33 31 104 l1 41 27 -65 c15 -36 34 -66 43 -68 10 -2 22 18 39 63 24 65 42 85 39 43 -1 -13 -1 -44 -1 -70 2 -42 5 -48 23 -48 21 0 22 3 15 77 -3 42 -6 90 -6 107 0 26 -4 31 -25 31 -21 0 -28 -10 -54 -75 -27 -70 -30 -73 -39 -50 -46 117 -49 124 -71 125 -13 1 -24 -3 -26 -9z" />
        <path d="M2220 356 c-2 -6 -6 -55 -9 -108 -6 -92 -5 -98 13 -98 21 0 31 33 31 104 l1 41 27 -65 c15 -36 34 -66 43 -68 10 -2 22 18 39 63 24 65 42 85 39 43 -1 -13 -1 -44 -1 -70 2 -42 5 -48 23 -48 21 0 22 3 15 77 -3 42 -6 90 -6 107 0 26 -4 31 -25 31 -21 0 -28 -10 -54 -75 -27 -70 -30 -73 -39 -50 -46 117 -49 124 -71 125 -13 1 -24 -3 -26 -9z" />
        <path d="M2489 361 c-2 -2 -4 -51 -4 -108 l0 -103 80 0 c73 0 80 2 80 20 0 18 -7 20 -60 20 -57 0 -60 1 -60 25 0 24 3 25 55 25 48 0 55 2 55 20 0 18 -7 20 -55 20 -52 0 -55 1 -55 25 0 24 3 25 60 25 50 0 60 3 60 18 0 15 -10 17 -76 17 -41 0 -77 -2 -80 -4z" />
        <path d="M2685 258 c0 -101 1 -108 20 -108 17 0 20 7 20 40 0 29 4 40 15 40 8 0 26 -18 40 -40 18 -29 32 -40 50 -40 l25 0 -26 40 -27 41 21 15 c15 10 22 26 22 47 0 52 -12 61 -90 67 l-70 5 0 -107z m104 66 c9 -3 16 -16 16 -29 0 -24 -17 -35 -56 -35 -21 0 -24 5 -24 35 0 30 3 35 24 35 13 0 31 -3 40 -6z" />
        <path d="M2933 355 c-34 -19 -58 -63 -58 -106 0 -22 10 -41 34 -65 42 -42 97 -47 141 -12 26 20 26 22 10 34 -14 11 -20 10 -32 -2 -33 -32 -98 -11 -108 36 -14 63 49 109 101 75 23 -15 28 -15 40 -3 36 36 -75 73 -128 43z" />
        <path d="M3115 365 c-1 0 -2 -48 -3 -108 l-2 -107 78 0 c70 0 77 2 77 20 0 18 -7 20 -55 20 -52 0 -55 1 -55 25 0 23 3 25 50 25 43 0 50 3 50 20 0 17 -7 20 -50 20 -47 0 -50 2 -50 25 0 24 3 25 55 25 46 0 55 3 55 18 0 15 -10 17 -75 17 -41 0 -75 0 -75 0z" />
        <path d="M390 235 c-47 -24 -138 -67 -202 -97 -65 -29 -118 -56 -118 -59 0 -4 19 -19 43 -35 35 -24 55 -29 119 -32 64 -3 85 0 122 18 49 23 92 67 112 116 17 39 29 134 18 133 -5 0 -47 -20 -94 -44z m30 -90 c-22 -45 -61 -76 -140 -109 -33 -13 -39 -13 -83 6 -26 11 -47 24 -47 29 0 17 283 143 288 128 2 -5 -6 -29 -18 -54z" />
    </g>
</svg> 